<svg width="250" height="29" viewBox="0 0 250 29" fill="none" xmlns="http://www.w3.org/2000/svg">
<g clip-path="url(#clip0_84_3673)">
<path d="M25.9674 8.05626C26.0139 7.85828 25.8781 7.69269 25.653 7.69269H12.889C12.889 7.69269 12.5532 7.69269 12.3961 7.69269C11.7745 7.69629 10.2205 7.69989 10.0383 7.70349C4.90128 7.78988 1.60758 10.3277 1.60758 14.1039C1.60758 15.8461 2.28632 17.3436 3.58666 18.474C1.84692 19.1723 0.90025 20.3711 0.90025 21.9153C0.90025 23.1177 1.49326 24.1076 2.5864 24.7736C1.00742 25.4719 0.100045 26.6814 0.00716352 28.2545C1.88229e-05 28.3697 0.0107359 28.5281 0.0893275 28.6145C0.167919 28.7009 0.303668 28.6901 0.414411 28.6901H2.97936C3.09367 28.6901 3.19727 28.6361 3.27229 28.5605C3.36874 28.4669 3.35803 28.0925 3.35803 28.0925C3.35803 26.9478 4.07607 26.1235 5.48714 25.6303C5.96227 25.6951 6.79105 25.7275 7.29118 25.7275L10.2312 25.7419H12.6533L16.415 25.7599C19.798 25.7995 20.1909 27.0306 20.1909 27.9521C20.1909 27.9989 20.1838 28.1861 20.1802 28.2329C20.1766 28.3265 20.1731 28.4921 20.2266 28.5749C20.2802 28.6577 20.4338 28.6901 20.5482 28.6901H23.1881C23.3989 28.6901 23.4739 28.7009 23.5704 28.6289C23.6668 28.5569 23.6418 28.4921 23.6525 28.3265C23.6561 28.2257 23.6525 27.9737 23.6525 27.8478C23.6525 25.5475 22.4879 22.7973 16.9437 22.7541L12.6533 22.7361H10.5206L7.01968 22.7217C5.18349 22.6929 4.25111 22.1997 4.25111 21.2566C4.25111 20.3746 5.14777 19.9607 5.76221 19.7807C6.58028 20.0939 7.48766 20.3171 8.44862 20.4502C8.78442 20.497 9.2524 20.5618 9.8597 20.6086C10.292 20.641 12.2853 20.695 13.4928 20.5726C14.1858 20.5006 15.5326 20.3423 16.147 20.1839C19.5265 19.3163 21.5699 17.1205 21.5699 14.1111C21.5699 12.8475 21.2055 11.7244 20.516 10.7777H23.4025C23.7883 10.7777 23.9347 10.7165 24.0419 10.5833C24.0955 10.5185 24.1384 10.4465 24.1955 10.3529C24.6849 9.55736 25.2529 8.82661 25.8995 8.17506C25.9353 8.12826 25.9603 8.09586 25.9674 8.05626ZM11.5637 18.0636C7.45551 18.0636 4.91557 16.4329 4.91557 14.1147C4.91557 11.7244 7.45551 10.2377 11.5637 10.2377C15.6719 10.2377 18.2118 11.7604 18.2118 14.1147C18.2154 16.4689 15.6755 18.0636 11.5637 18.0636Z" fill="white"/>
<path d="M87.0474 7.85468C80.4171 7.85468 76.4554 11.8144 76.4554 18.4524C76.4554 24.8528 80.485 28.6721 87.2332 28.6721C92.1416 28.6721 95.621 26.649 97.3036 22.8261C97.3465 22.7253 97.35 22.6137 97.3107 22.5129C97.2714 22.4121 97.1929 22.3293 97.0964 22.2861L94.8208 21.271C94.7208 21.2242 94.6065 21.2242 94.5064 21.2638C94.4064 21.3034 94.3243 21.3826 94.2814 21.4834C93.1597 24.1004 90.7483 25.4827 87.3082 25.4827C82.8499 25.4827 80.2742 23.3085 80.0134 19.3487H97.1178C97.3429 19.3487 97.5251 19.1651 97.5251 18.9383V17.3976C97.5251 11.3356 93.7062 7.85468 87.0474 7.85468ZM80.0206 16.3897C80.3385 12.8691 82.932 10.7813 87.0474 10.7813C91.2663 10.7813 93.8277 12.8727 93.9456 16.3897H80.0206Z" fill="white"/>
<path d="M133.824 7.89428C130.373 7.89428 127.733 9.19019 126.1 11.6596V0.410373C126.1 0.183588 125.918 0 125.693 0H123.046C122.821 0 122.639 0.183588 122.639 0.410373V27.6606C122.639 27.8874 122.821 28.0709 123.046 28.0709H125.693C125.918 28.0709 126.1 27.8874 126.1 27.6606V18.3012C126.1 13.8915 128.826 11.0441 133.041 11.0441C137.003 11.0441 139.011 13.2723 139.011 17.664V27.6606C139.011 27.8874 139.193 28.0709 139.418 28.0709H142.065C142.29 28.0709 142.472 27.8874 142.472 27.6606V17.4013C142.472 11.1809 139.482 7.89428 133.824 7.89428Z" fill="white"/>
<path d="M113.026 16.9549L106.888 16.2421C104.098 15.7886 103.723 14.7086 103.723 13.7151C103.723 11.3824 106.463 10.8929 108.764 10.8929C112.5 10.8929 114.483 11.9476 115.394 14.4206C115.469 14.6258 115.691 14.7374 115.898 14.669L118.47 13.8411C118.677 13.7763 118.795 13.5567 118.741 13.3443C117.795 9.80575 114.315 7.85468 108.949 7.85468C103.67 7.85468 100.262 10.1981 100.262 13.8267C100.262 16.9225 102.251 18.78 106.181 19.3451L112.25 20.0579C114.89 20.443 115.408 21.2746 115.408 22.5849C115.408 25.2055 112.157 25.5943 110.221 25.5943C106.249 25.5943 103.809 24.212 102.962 21.487C102.93 21.3826 102.859 21.2962 102.762 21.2458C102.666 21.1954 102.555 21.1846 102.451 21.217L99.8793 22.0449C99.7757 22.0773 99.69 22.1493 99.64 22.2501C99.5899 22.3473 99.5828 22.4589 99.6149 22.5633C100.915 26.6166 104.409 28.6757 110 28.6757C115.662 28.6757 118.913 26.3899 118.913 22.4013C118.906 19.2623 117.041 17.5344 113.026 16.9549Z" fill="white"/>
<path d="M173.402 8.45944H170.755C170.53 8.45944 170.347 8.64303 170.347 8.86981V27.6642C170.347 27.891 170.53 28.0745 170.755 28.0745H173.402C173.627 28.0745 173.809 27.891 173.809 27.6642V8.86981C173.809 8.64303 173.627 8.45944 173.402 8.45944Z" fill="white"/>
<path d="M156.054 7.85468C149.424 7.85468 145.462 11.8144 145.462 18.4524C145.462 24.8528 149.492 28.6721 156.24 28.6721C161.145 28.6721 164.628 26.649 166.311 22.8261C166.353 22.7253 166.357 22.6137 166.318 22.5129C166.278 22.4121 166.2 22.3293 166.103 22.2861L163.828 21.271C163.728 21.2278 163.617 21.2242 163.513 21.2638C163.413 21.3034 163.331 21.3826 163.288 21.4834C162.167 24.1004 159.752 25.4827 156.315 25.4827C151.857 25.4827 149.281 23.3085 149.02 19.3487H166.125C166.35 19.3487 166.532 19.1651 166.532 18.9383V17.3976C166.536 11.3356 162.713 7.85468 156.054 7.85468ZM149.028 16.3897C149.342 12.8691 151.939 10.7813 156.054 10.7813C160.273 10.7813 162.835 12.8727 162.953 16.3897H149.028Z" fill="white"/>
<path d="M173.623 1.68469H170.526C170.301 1.68469 170.119 1.83948 170.119 2.02667V5.55084C170.119 5.74162 170.301 5.89641 170.526 5.89641H173.623C173.848 5.89641 174.031 5.74162 174.031 5.55084V2.02667C174.031 1.83948 173.848 1.68469 173.623 1.68469Z" fill="white"/>
<path d="M249.689 8.09227C249.193 7.96628 248.721 7.96628 248.175 7.96628C245.356 7.96628 243.034 9.42058 241.684 11.9476V8.86622C241.684 8.63943 241.501 8.45585 241.276 8.45585H238.815C238.59 8.45585 238.408 8.63943 238.408 8.86622V27.6606C238.408 27.8874 238.59 28.071 238.815 28.071H241.462C241.687 28.071 241.869 27.8874 241.869 27.6606V19.7663C241.869 16.6309 242.509 14.5142 243.877 13.1031C245.034 11.9368 246.428 11.4185 248.4 11.4185C248.882 11.4185 249.146 11.4185 249.521 11.4868C249.643 11.5084 249.764 11.476 249.854 11.3969C249.946 11.3177 250 11.2025 250 11.0801V8.48824C250 8.30466 249.871 8.13907 249.689 8.09227Z" fill="white"/>
<path d="M36.145 7.85828C29.5148 7.85828 25.553 11.818 25.553 18.456C25.553 24.8564 29.5826 28.6757 36.3308 28.6757C41.2356 28.6757 44.7187 26.6562 46.4013 22.8333C46.4441 22.7325 46.4477 22.6209 46.4084 22.5201C46.3691 22.4193 46.2941 22.3365 46.1941 22.2933L43.9185 21.2782C43.8185 21.235 43.7041 21.2314 43.6041 21.271C43.5041 21.3106 43.4219 21.3898 43.3791 21.4906C42.2573 24.1076 39.846 25.4899 36.4058 25.4899C31.9511 25.4899 29.3755 23.3157 29.1111 19.3559H46.2191C46.4441 19.3559 46.6263 19.1723 46.6263 18.9455V17.4048C46.6263 11.3356 42.8075 7.85828 36.145 7.85828ZM29.1182 16.3897C29.4362 12.8691 32.0297 10.7849 36.145 10.7849C40.364 10.7849 42.9254 12.8763 43.0433 16.3897H29.1182Z" fill="white"/>
<path d="M202.856 7.89429C199.651 7.89429 197.133 9.33059 195.672 11.9692C194.511 9.33059 192.114 7.89429 188.831 7.89429C185.887 7.89429 183.662 9.03541 182.3 11.2205V8.86982C182.3 8.64304 182.118 8.45945 181.893 8.45945H179.357C179.132 8.45945 178.95 8.64304 178.95 8.86982V27.6642C178.95 27.891 179.132 28.0746 179.357 28.0746H182.004C182.229 28.0746 182.411 27.891 182.411 27.6642V17.5524C182.411 13.5999 184.665 11.0477 188.159 11.0477C192.171 11.0477 193.01 14.0751 193.01 16.6129V27.6642C193.01 27.891 193.193 28.0746 193.418 28.0746H196.068C196.293 28.0746 196.476 27.891 196.476 27.6642V17.0629C196.476 13.3515 198.665 11.0477 202.188 11.0477C205.478 11.0477 207.075 12.9052 207.075 16.7245V27.6606C207.075 27.8874 207.257 28.071 207.482 28.071H210.133C210.358 28.071 210.54 27.8874 210.54 27.6606V16.5373C210.536 10.9613 207.807 7.89429 202.856 7.89429Z" fill="white"/>
<path d="M224.115 7.85468C217.484 7.85468 213.523 11.8144 213.523 18.4524C213.523 24.8528 217.552 28.6721 224.301 28.6721C229.205 28.6721 232.692 26.649 234.375 22.8261C234.417 22.7253 234.421 22.6137 234.382 22.5129C234.342 22.4121 234.267 22.3293 234.167 22.2861L231.892 21.271C231.792 21.2278 231.677 21.2242 231.577 21.2638C231.477 21.3034 231.395 21.3826 231.352 21.4834C230.231 24.1004 227.816 25.4827 224.379 25.4827C219.924 25.4827 217.349 23.3085 217.084 19.3487H234.192C234.417 19.3487 234.6 19.1651 234.6 18.9383V17.3976C234.592 11.3356 230.774 7.85468 224.115 7.85468ZM217.088 16.3897C217.406 12.8691 219.999 10.7813 224.115 10.7813C228.334 10.7813 230.895 12.8727 231.013 16.3897H217.088Z" fill="white"/>
<path d="M61.723 8.09587C61.2265 7.96988 60.7549 7.96988 60.2084 7.96988C57.3898 7.96988 55.0677 9.42418 53.7138 11.9512V8.86982C53.7138 8.64303 53.5316 8.45945 53.3066 8.45945H50.8452C50.6202 8.45945 50.438 8.64303 50.438 8.86982V27.6642C50.438 27.891 50.6202 28.0746 50.8452 28.0746H53.4923C53.7174 28.0746 53.8996 27.891 53.8996 27.6642V19.7699C53.8996 16.6345 54.539 14.5178 55.9073 13.1067C57.0647 11.9404 58.4579 11.4221 60.4298 11.4221C60.9121 11.4221 61.1765 11.4221 61.5516 11.4904C61.6694 11.512 61.7909 11.4796 61.8838 11.4005C61.9767 11.3213 62.0303 11.2061 62.0303 11.0837V8.49185C62.0303 8.30466 61.9016 8.13907 61.723 8.09587Z" fill="white"/>
<path d="M70.3109 13.1067C71.4398 11.9692 72.8044 11.4544 74.7049 11.4328C74.7049 11.4328 74.7049 11.4292 74.7085 11.4292C74.8728 11.4292 75.0193 11.3357 75.0943 11.2025H75.0979H75.1015C75.5694 10.3205 76.1339 9.52497 76.7912 8.81942L76.7876 8.81582C76.8626 8.73303 76.9126 8.62503 76.9126 8.50264C76.9126 8.49184 76.9126 8.48464 76.9091 8.47384C76.9019 8.35145 76.8483 8.24346 76.7626 8.16426C76.6912 8.09947 76.6018 8.05627 76.4982 8.04907V8.04547C76.1839 8.00947 75.8588 7.98427 75.523 7.97348C75.4265 7.96628 74.7228 7.97348 74.612 7.97348C71.7935 7.97348 69.4714 9.42778 68.1175 11.9548V8.87342C68.1175 8.64663 67.9353 8.46304 67.7103 8.46304H65.2489C65.0239 8.46304 64.8417 8.64663 64.8417 8.87342V27.6678C64.8417 27.8946 65.0239 28.0782 65.2489 28.0782H67.8996C68.1247 28.0782 68.3069 27.8946 68.3069 27.6678V19.7699C68.3033 16.6345 68.9427 14.5142 70.3109 13.1067Z" fill="white"/>
</g>
<defs>
<clipPath id="clip0_84_3673">
<rect width="250" height="28.7009" fill="white"/>
</clipPath>
</defs>
</svg>
