<svg width="32" height="32" viewBox="0 0 32 32" fill="none" xmlns="http://www.w3.org/2000/svg">
<rect width="32" height="32" rx="8" fill="#F0EEE6"/>
<path d="M16.0582 20.4352C15.3271 20.4352 14.5906 20.4298 13.8541 20.4243L11.4387 20.4081C9.78697 20.3973 8.14604 20.3864 6.55386 20.3918C5.5953 20.4027 5.28661 19.2058 6.23434 18.7888C7.73987 18.2798 7.94025 18.0577 8.54138 15.9511C9.24541 13.4599 9.88986 11.1691 10.7564 7.7681C11.0813 6.45211 11.0217 6.08385 9.91152 5.56937C9.37538 5.19569 9.58659 4.13965 10.4585 4.13965C12.094 4.15048 13.6158 4.15048 15.2567 4.13965C16.1286 4.13965 16.3561 5.31483 15.5762 5.71017C14.1953 6.2409 13.8432 6.52793 13.4912 7.81142C12.5543 11.2232 11.9315 13.5465 11.2708 16.0377C10.6426 18.3935 10.9188 18.778 12.8143 18.778H13.1934C15.2675 18.7509 15.6087 18.4206 17.1901 15.8482C17.7371 14.9654 19.0151 15.4149 18.636 16.4601C18.2786 17.4079 17.9212 18.3772 17.5475 19.3575C17.2388 20.1427 16.8435 20.4298 16.0582 20.4352Z" fill="black"/>
<path d="M18.2007 27.6795C16.5977 27.6795 15.3521 27.2192 14.7184 26.7859C14.009 26.3256 13.944 25.8003 14.1985 24.9771C14.3773 24.4193 14.5885 23.5907 14.8213 22.6592C15.1625 21.4678 16.7655 21.6249 16.6031 22.8109C16.3269 24.8634 17.15 26.0873 18.948 26.0873C20.2044 26.0873 21.228 25.3291 21.5746 24.1539C21.9537 22.8542 21.6071 21.874 19.3163 20.1356C16.9713 18.3159 16.5056 16.6858 17.1284 14.7416C17.7891 12.5646 20.1178 10.8262 23.3455 10.8262C24.5152 10.8262 25.3926 11.0861 25.9991 11.3677C26.7465 11.7252 26.9035 12.1692 26.7031 12.9437C26.5028 13.6748 26.1941 14.6225 25.9558 15.5594C25.6254 16.7454 24.0658 16.5938 24.212 15.3644C24.434 13.5123 23.7571 12.4184 22.3328 12.4184C21.293 12.4184 20.2532 13.1657 19.8849 14.4871C19.5383 15.7923 19.9661 16.7129 21.8508 18.2889C24.4448 20.4497 24.9539 21.549 24.3095 23.9157C23.7571 25.8544 21.4609 27.6795 18.2007 27.6795Z" fill="black"/>
</svg>
