<svg width="32" height="32" viewBox="0 0 32 32" fill="none" xmlns="http://www.w3.org/2000/svg">
<rect width="32" height="32" fill="#F0EEE6"/>
<path d="M17.8226 27.2766C16.29 27.2766 15.1148 26.8379 14.5191 26.4372C13.9396 26.0581 13.8963 25.6844 14.14 25.0183C14.3187 24.4822 14.5408 23.6427 14.7628 22.6625C14.9632 21.8448 15.9922 21.9314 15.8947 22.6842C15.6076 24.9479 16.5175 26.3451 18.4238 26.3451C19.951 26.3451 21.1261 25.484 21.5269 24.1518C21.9493 22.6896 21.5486 21.6227 18.9761 19.6731C16.9128 18.0755 16.4904 16.5862 17.0699 14.7666C17.6872 12.7249 19.886 11.084 22.9674 11.084C24.0776 11.084 24.9008 11.3277 25.4749 11.5985C26.076 11.8855 26.1843 12.1725 26.0056 12.7736C25.7836 13.5048 25.4749 14.4579 25.2528 15.411C25.0849 16.1259 24.0614 16.0284 24.1643 15.3027C24.4513 13.3044 23.6715 12.0155 22.1009 12.0155C20.7958 12.0155 19.5989 12.8603 19.1765 14.3712C18.7974 15.8118 19.2632 16.8083 21.2615 18.4709C23.7689 20.5559 24.213 21.5361 23.6119 23.7511C23.1028 25.549 20.9258 27.2766 17.8226 27.2766Z" fill="black"/>
<path d="M16.1041 19.8862L13.5425 19.8537C12.806 19.8429 12.0695 19.8375 11.3384 19.8321C9.73537 19.8212 8.13777 19.8212 6.58891 19.8429C5.94445 19.8646 5.7874 19.0468 6.47518 18.8464C8.05112 18.4023 8.15943 18.3807 8.84721 16.0087C9.6054 13.3225 10.2932 10.8801 11.2463 7.15416C11.555 5.849 11.5333 5.57822 10.3527 5.24787C9.77328 5.0854 9.87076 4.22974 10.5477 4.2514C12.1345 4.29472 13.6617 4.29472 15.2593 4.2514C15.8604 4.22974 15.9687 5.04749 15.373 5.24787C13.9487 5.67028 13.6617 5.849 13.3097 7.15416C12.2861 10.8801 11.62 13.3442 10.9106 16.0303C10.2228 18.6027 10.5152 18.8897 12.6652 18.8897C12.8981 18.8897 13.1093 18.8843 13.3097 18.8843C15.503 18.8573 15.7683 18.5702 17.523 15.7866C17.8588 15.2559 18.6332 15.4725 18.3678 16.117C17.9887 17.0701 17.6313 18.0449 17.2793 19.0251C17.0356 19.6913 16.7486 19.8862 16.1041 19.8862Z" fill="black"/>
</svg>
